<?xml version="1.0" encoding="UTF-8" standalone="no"?>
<svg
   xmlns:dc="http://purl.org/dc/elements/1.1/"
   xmlns:cc="http://creativecommons.org/ns#"
   xmlns:rdf="http://www.w3.org/1999/02/22-rdf-syntax-ns#"
   xmlns:svg="http://www.w3.org/2000/svg"
   xmlns="http://www.w3.org/2000/svg"
   xmlns:sodipodi="http://sodipodi.sourceforge.net/DTD/sodipodi-0.dtd"
   xmlns:inkscape="http://www.inkscape.org/namespaces/inkscape"
   width="64"
   height="64"
   viewBox="0 0 16.933334 16.933334"
   version="1.1"
   id="svg8"
   inkscape:version="1.0.2 (e86c870879, 2021-01-15)"
   sodipodi:docname="BlueL1.svg">
  <defs
     id="defs2" />
  <sodipodi:namedview
     id="base"
     pagecolor="#ffffff"
     bordercolor="#666666"
     borderopacity="1.0"
     inkscape:pageopacity="0.0"
     inkscape:pageshadow="2"
     inkscape:zoom="15.328125"
     inkscape:cx="32"
     inkscape:cy="32"
     inkscape:document-units="mm"
     inkscape:current-layer="layer1"
     inkscape:document-rotation="0"
     showgrid="false"
     units="px"
     width="512px"
     inkscape:window-width="1713"
     inkscape:window-height="1220"
     inkscape:window-x="2264"
     inkscape:window-y="75"
     inkscape:window-maximized="0"
     objecttolerance="5"
     inkscape:snap-to-guides="true">
    <inkscape:grid
       type="xygrid"
       id="grid868" />
  </sodipodi:namedview>
  <metadata
     id="metadata5">
    <rdf:RDF>
      <cc:Work
         rdf:about="">
        <dc:format>image/svg+xml</dc:format>
        <dc:type
           rdf:resource="http://purl.org/dc/dcmitype/StillImage" />
        <dc:title></dc:title>
        <cc:license
           rdf:resource="http://creativecommons.org/licenses/by-sa/4.0/" />
      </cc:Work>
      <cc:License
         rdf:about="http://creativecommons.org/licenses/by-sa/4.0/">
        <cc:permits
           rdf:resource="http://creativecommons.org/ns#Reproduction" />
        <cc:permits
           rdf:resource="http://creativecommons.org/ns#Distribution" />
        <cc:requires
           rdf:resource="http://creativecommons.org/ns#Notice" />
        <cc:requires
           rdf:resource="http://creativecommons.org/ns#Attribution" />
        <cc:permits
           rdf:resource="http://creativecommons.org/ns#DerivativeWorks" />
        <cc:requires
           rdf:resource="http://creativecommons.org/ns#ShareAlike" />
      </cc:License>
    </rdf:RDF>
  </metadata>
  <g
     inkscape:label="Layer 1"
     inkscape:groupmode="layer"
     id="layer1">
    <path
       id="path884"
       style="fill:#3485fd;stroke:#0d6efd;stroke-width:0.13229167;stroke-miterlimit:4;stroke-dasharray:none"
       d="M 8.3142099,0.51302515 C 4.7191942,0.51302515 4.8476602,3.2172886 4.7625,6.35 h 7.14375 C 11.82032,3.2152012 12.274472,0.51302515 8.3174804,0.51302515 h -0.00325 z"
       sodipodi:nodetypes="sccscs" />
    <ellipse
       style="fill:#67dab8;stroke:#11694f;stroke-width:0.13229167;stroke-miterlimit:4;stroke-dasharray:none"
       id="path891"
       cx="6.9356556"
       cy="4.1384726"
       rx="0.96139628"
       ry="1.0276377" />
    <ellipse
       style="fill:#67dab8;stroke:#11694f;stroke-width:0.13229167;stroke-miterlimit:4;stroke-dasharray:none"
       id="path891-6"
       cx="9.8990736"
       cy="4.1408658"
       rx="0.96139628"
       ry="1.0276377" />
    <path
       id="rect917"
       style="fill:#3485fd;stroke:#0d6efd;stroke-width:0.13229167;stroke-miterlimit:4;stroke-dasharray:none"
       d="m 4.7625,6.8791667 h 7.14375 V 13.229167 H 4.7625 Z"
       sodipodi:nodetypes="ccccc" />
    <rect
       style="fill:#abdee5;stroke:#106e7d;stroke-width:0.13229167;stroke-miterlimit:4;stroke-dasharray:none"
       id="rect915"
       width="7.1437502"
       height="0.52916658"
       x="4.7624998"
       y="6.3499999"
       ry="0" />
    <path
       id="path919"
       style="fill:#67dab8;stroke:#11694f;stroke-width:0.13229167;stroke-miterlimit:4;stroke-dasharray:none"
       d="m 4.7625,13.229167 c 0.1470071,1.894749 1.9350824,3.276333 3.5456057,3.282234 1.6234184,0.0059 3.4511363,-1.387487 3.5981443,-3.282234 z"
       sodipodi:nodetypes="cacc" />
    <rect
       style="fill:#3485fd;fill-opacity:1;stroke:#0d6efd;stroke-width:0.13229167;stroke-opacity:1;stroke-miterlimit:4;stroke-dasharray:none"
       id="rect1009-6"
       width="0.62746155"
       height="2.8651912"
       x="11.383937"
       y="13.272269"
       transform="rotate(-9.2201811)" />
    <rect
       style="fill:#3485fd;fill-opacity:1;stroke:#0d6efd;stroke-width:0.13229167;stroke-opacity:1;stroke-miterlimit:4;stroke-dasharray:none"
       id="rect1009"
       width="0.62746149"
       height="2.8651912"
       x="8.4065866"
       y="12.030489"
       transform="rotate(-21.078625)" />
    <circle
       style="fill:#abdee5;fill-opacity:1;stroke:#106e7d;stroke-width:0.13229167;stroke-opacity:1;stroke-miterlimit:4;stroke-dasharray:none"
       id="path946"
       cx="12.297632"
       cy="7.7490325"
       r="0.66711146" />
    <path
       id="path946-5"
       style="fill:#abdee5;fill-opacity:1;stroke:#106e7d;stroke-width:0.13229167;stroke-opacity:1;stroke-miterlimit:4;stroke-dasharray:none"
       d="m 14.219936,13.893973 c -0.368457,-4e-5 -0.667175,0.298637 -0.667184,0.667093 1.6e-5,0.164125 0.0032,0.344948 0.03592,0.407174 0.01395,0.02654 0.133434,0.01647 0.133427,0.0059 -2e-6,-0.369692 0.24292,-0.66938 0.542566,-0.669353 0.403292,-0.0309 0.46677,0.493634 0.455717,0.570525 -0.0088,0.06158 0.136314,-0.03142 0.145047,-0.08913 0.0087,-0.0577 0.0216,-0.168189 0.0216,-0.225116 -2.3e-5,-0.368421 -0.298673,-0.667082 -0.667091,-0.667093 z"
       sodipodi:nodetypes="ccsccsssc" />
    <circle
       style="fill:#abdee5;fill-opacity:1;stroke:#106e7d;stroke-width:0.13229167;stroke-opacity:1;stroke-miterlimit:4;stroke-dasharray:none"
       id="path946-3"
       cx="13.611645"
       cy="11.055765"
       r="0.66711146" />
    <rect
       style="fill:#3485fd;fill-opacity:1;stroke:#0d6efd;stroke-width:0.13229167;stroke-opacity:1;stroke-miterlimit:4;stroke-dasharray:none"
       id="rect1009-6-9"
       width="0.62746155"
       height="2.8651912"
       x="-4.9307532"
       y="10.574856"
       transform="matrix(-0.98707989,-0.16022887,-0.16022887,0.98707989,0,0)" />
    <rect
       style="fill:#3485fd;fill-opacity:1;stroke:#0d6efd;stroke-width:0.13229167;stroke-opacity:1;stroke-miterlimit:4;stroke-dasharray:none"
       id="rect1009-1"
       width="0.62746149"
       height="2.8651912"
       x="-7.0056162"
       y="6.0380645"
       transform="matrix(-0.93308777,-0.35964873,-0.35964873,0.93308777,0,0)" />
    <circle
       style="fill:#abdee5;fill-opacity:1;stroke:#106e7d;stroke-width:0.13229167;stroke-opacity:1;stroke-miterlimit:4;stroke-dasharray:none"
       id="path946-2"
       cx="-4.2384734"
       cy="7.7005539"
       r="0.66711146"
       transform="scale(-1,1)" />
    <path
       id="path946-5-7"
       style="fill:#abdee5;fill-opacity:1;stroke:#106e7d;stroke-width:0.13229167;stroke-opacity:1;stroke-miterlimit:4;stroke-dasharray:none"
       d="m 2.3161699,13.845495 c 0.3684568,-4e-5 0.6671748,0.298637 0.6671835,0.667093 -1.57e-5,0.164125 -0.00318,0.344948 -0.03592,0.407174 -0.013955,0.02654 -0.1334343,0.01647 -0.1334273,0.0059 1.8e-6,-0.369691 -0.2429198,-0.669379 -0.5425663,-0.669352 -0.4032917,-0.0309 -0.4667702,0.493634 -0.4557166,0.570524 0.00885,0.06158 -0.1363144,-0.03142 -0.1450475,-0.08913 -0.00873,-0.0577 -0.0216,-0.168189 -0.021597,-0.225116 2.28e-5,-0.368421 0.2986725,-0.667083 0.6670912,-0.667093 z"
       sodipodi:nodetypes="ccsccsssc" />
    <circle
       style="fill:#abdee5;fill-opacity:1;stroke:#106e7d;stroke-width:0.13229167;stroke-opacity:1;stroke-miterlimit:4;stroke-dasharray:none"
       id="path946-3-0"
       cx="-2.9244604"
       cy="11.007287"
       r="0.66711146"
       transform="scale(-1,1)" />
  </g>
</svg>
