<?xml version="1.0" encoding="UTF-8" standalone="no"?>
<svg
   xmlns:dc="http://purl.org/dc/elements/1.1/"
   xmlns:cc="http://creativecommons.org/ns#"
   xmlns:rdf="http://www.w3.org/1999/02/22-rdf-syntax-ns#"
   xmlns:svg="http://www.w3.org/2000/svg"
   xmlns="http://www.w3.org/2000/svg"
   xmlns:sodipodi="http://sodipodi.sourceforge.net/DTD/sodipodi-0.dtd"
   xmlns:inkscape="http://www.inkscape.org/namespaces/inkscape"
   width="192"
   height="768"
   viewBox="0 0 50.800002 203.20001"
   version="1.1"
   id="svg8"
   inkscape:version="0.92.5 (2060ec1f9f, 2020-04-08)"
   sodipodi:docname="BlueL1.svg">
  <defs
     id="defs2" />
  <sodipodi:namedview
     id="base"
     pagecolor="#ffffff"
     bordercolor="#666666"
     borderopacity="1.0"
     inkscape:pageopacity="0.0"
     inkscape:pageshadow="2"
     inkscape:zoom="1.1145218"
     inkscape:cx="-113.73137"
     inkscape:cy="522.625"
     inkscape:document-units="mm"
     inkscape:current-layer="layer1"
     inkscape:document-rotation="0"
     showgrid="true"
     units="px"
     width="512px"
     inkscape:window-width="1920"
     inkscape:window-height="1016"
     inkscape:window-x="0"
     inkscape:window-y="27"
     inkscape:window-maximized="1"
     objecttolerance="5"
     inkscape:snap-to-guides="true">
    <inkscape:grid
       type="xygrid"
       id="grid868" />
  </sodipodi:namedview>
  <metadata
     id="metadata5">
    <rdf:RDF>
      <cc:Work
         rdf:about="">
        <dc:format>image/svg+xml</dc:format>
        <dc:type
           rdf:resource="http://purl.org/dc/dcmitype/StillImage" />
        <dc:title></dc:title>
        <cc:license
           rdf:resource="http://creativecommons.org/licenses/by-sa/4.0/" />
      </cc:Work>
      <cc:License
         rdf:about="http://creativecommons.org/licenses/by-sa/4.0/">
        <cc:permits
           rdf:resource="http://creativecommons.org/ns#Reproduction" />
        <cc:permits
           rdf:resource="http://creativecommons.org/ns#Distribution" />
        <cc:requires
           rdf:resource="http://creativecommons.org/ns#Notice" />
        <cc:requires
           rdf:resource="http://creativecommons.org/ns#Attribution" />
        <cc:permits
           rdf:resource="http://creativecommons.org/ns#DerivativeWorks" />
        <cc:requires
           rdf:resource="http://creativecommons.org/ns#ShareAlike" />
      </cc:License>
    </rdf:RDF>
  </metadata>
  <g
     inkscape:groupmode="layer"
     id="layer3"
     inkscape:label="Frame Border"
     sodipodi:insensitive="true"
     style="opacity:0"
     transform="translate(0,135.46667)">
    <rect
       style="fill:#abdee5;stroke:none;stroke-width:0.49999899"
       id="rect3851"
       width="16.933332"
       height="16.933332"
       x="0"
       y="-5.5511151e-17" />
    <rect
       style="fill:#86cfda;stroke:none;stroke-width:0.49999899"
       id="rect3851-2"
       width="16.933332"
       height="16.933332"
       x="8.9009603e-07"
       y="16.933332" />
    <rect
       style="fill:#abdee5;stroke:none;stroke-width:0.49999899"
       id="rect3851-2-7"
       width="16.933332"
       height="16.933332"
       x="1.0391076e-06"
       y="33.866665" />
    <rect
       style="fill:#61c0cf;stroke:none;stroke-width:0.49999899"
       id="rect3851-2-7-3"
       width="16.933332"
       height="16.933332"
       x="0"
       y="50.799999" />
  </g>
  <g
     inkscape:label="Textura"
     inkscape:groupmode="layer"
     id="layer1"
     transform="translate(0,135.46667)">
    <g
       id="g9955"
       transform="matrix(2.9909929,0,0,2.9981898,0.67030964,-134.88815)">
      <path
         inkscape:connector-curvature="0"
         sodipodi:nodetypes="sccscs"
         d="M 8.3142099,0.51302515 C 4.7191942,0.51302515 4.8476602,3.2172886 4.7625,6.35 h 7.14375 C 11.82032,3.2152012 12.274472,0.51302515 8.3174804,0.51302515 h -0.00325 z"
         style="fill:#3485fd;stroke:#0d6efd;stroke-width:0.132292;stroke-miterlimit:4;stroke-dasharray:none"
         id="path884" />
      <ellipse
         ry="1.0276377"
         rx="0.96139628"
         cy="4.1384726"
         cx="6.9356556"
         id="path891"
         style="fill:#67dab8;stroke:#11694f;stroke-width:0.132292;stroke-miterlimit:4;stroke-dasharray:none" />
      <ellipse
         ry="1.0276377"
         rx="0.96139628"
         cy="4.1408658"
         cx="9.8990736"
         id="path891-6"
         style="fill:#67dab8;stroke:#11694f;stroke-width:0.132292;stroke-miterlimit:4;stroke-dasharray:none" />
      <path
         inkscape:connector-curvature="0"
         sodipodi:nodetypes="ccccc"
         d="m 4.7625,6.8791667 h 7.14375 V 13.229167 H 4.7625 Z"
         style="fill:#3485fd;stroke:#0d6efd;stroke-width:0.132292;stroke-miterlimit:4;stroke-dasharray:none"
         id="rect917" />
      <rect
         ry="0"
         y="6.3499999"
         x="4.7624998"
         height="0.52916658"
         width="7.1437502"
         id="rect915"
         style="fill:#abdee5;stroke:#106e7d;stroke-width:0.132292;stroke-miterlimit:4;stroke-dasharray:none" />
      <path
         inkscape:connector-curvature="0"
         sodipodi:nodetypes="cacc"
         d="m 4.7625,13.229167 c 0.1470071,1.894749 1.9350824,3.276333 3.5456057,3.282234 1.6234184,0.0059 3.4511363,-1.387487 3.5981443,-3.282234 z"
         style="fill:#67dab8;stroke:#11694f;stroke-width:0.132292;stroke-miterlimit:4;stroke-dasharray:none"
         id="path919" />
      <rect
         transform="rotate(-9.2201811)"
         y="13.272269"
         x="11.383937"
         height="2.8651912"
         width="0.62746155"
         id="rect1009-6"
         style="fill:#3485fd;fill-opacity:1;stroke:#0d6efd;stroke-width:0.132292;stroke-miterlimit:4;stroke-dasharray:none;stroke-opacity:1" />
      <rect
         transform="rotate(-21.078625)"
         y="12.030489"
         x="8.4065866"
         height="2.8651912"
         width="0.62746149"
         id="rect1009"
         style="fill:#3485fd;fill-opacity:1;stroke:#0d6efd;stroke-width:0.132292;stroke-miterlimit:4;stroke-dasharray:none;stroke-opacity:1" />
      <circle
         r="0.66711146"
         cy="7.7490325"
         cx="12.297632"
         id="path946"
         style="fill:#abdee5;fill-opacity:1;stroke:#106e7d;stroke-width:0.132292;stroke-miterlimit:4;stroke-dasharray:none;stroke-opacity:1" />
      <path
         inkscape:connector-curvature="0"
         sodipodi:nodetypes="ccsccsssc"
         d="m 14.219936,13.893973 c -0.368457,-4e-5 -0.667175,0.298637 -0.667184,0.667093 1.6e-5,0.164125 0.0032,0.344948 0.03592,0.407174 0.01395,0.02654 0.133434,0.01647 0.133427,0.0059 -2e-6,-0.369692 0.24292,-0.66938 0.542566,-0.669353 0.403292,-0.0309 0.46677,0.493634 0.455717,0.570525 -0.0088,0.06158 0.136314,-0.03142 0.145047,-0.08913 0.0087,-0.0577 0.0216,-0.168189 0.0216,-0.225116 -2.3e-5,-0.368421 -0.298673,-0.667082 -0.667091,-0.667093 z"
         style="fill:#abdee5;fill-opacity:1;stroke:#106e7d;stroke-width:0.132292;stroke-miterlimit:4;stroke-dasharray:none;stroke-opacity:1"
         id="path946-5" />
      <circle
         r="0.66711146"
         cy="11.055765"
         cx="13.611645"
         id="path946-3"
         style="fill:#abdee5;fill-opacity:1;stroke:#106e7d;stroke-width:0.132292;stroke-miterlimit:4;stroke-dasharray:none;stroke-opacity:1" />
      <rect
         transform="matrix(-0.98707989,-0.16022887,-0.16022887,0.98707989,0,0)"
         y="10.574856"
         x="-4.9307532"
         height="2.8651912"
         width="0.62746155"
         id="rect1009-6-9"
         style="fill:#3485fd;fill-opacity:1;stroke:#0d6efd;stroke-width:0.132292;stroke-miterlimit:4;stroke-dasharray:none;stroke-opacity:1" />
      <rect
         transform="matrix(-0.93308777,-0.35964873,-0.35964873,0.93308777,0,0)"
         y="6.0380645"
         x="-7.0056162"
         height="2.8651912"
         width="0.62746149"
         id="rect1009-1"
         style="fill:#3485fd;fill-opacity:1;stroke:#0d6efd;stroke-width:0.132292;stroke-miterlimit:4;stroke-dasharray:none;stroke-opacity:1" />
      <circle
         transform="scale(-1,1)"
         r="0.66711146"
         cy="7.7005539"
         cx="-4.2384734"
         id="path946-2"
         style="fill:#abdee5;fill-opacity:1;stroke:#106e7d;stroke-width:0.132292;stroke-miterlimit:4;stroke-dasharray:none;stroke-opacity:1" />
      <path
         inkscape:connector-curvature="0"
         sodipodi:nodetypes="ccsccsssc"
         d="m 2.3161699,13.845495 c 0.3684568,-4e-5 0.6671748,0.298637 0.6671835,0.667093 -1.57e-5,0.164125 -0.00318,0.344948 -0.03592,0.407174 -0.013955,0.02654 -0.1334343,0.01647 -0.1334273,0.0059 1.8e-6,-0.369691 -0.2429198,-0.669379 -0.5425663,-0.669352 -0.4032917,-0.0309 -0.4667702,0.493634 -0.4557166,0.570524 0.00885,0.06158 -0.1363144,-0.03142 -0.1450475,-0.08913 -0.00873,-0.0577 -0.0216,-0.168189 -0.021597,-0.225116 2.28e-5,-0.368421 0.2986725,-0.667083 0.6670912,-0.667093 z"
         style="fill:#abdee5;fill-opacity:1;stroke:#106e7d;stroke-width:0.132292;stroke-miterlimit:4;stroke-dasharray:none;stroke-opacity:1"
         id="path946-5-7" />
      <circle
         transform="scale(-1,1)"
         r="0.66711146"
         cy="11.007287"
         cx="-2.9244604"
         id="path946-3-0"
         style="fill:#abdee5;fill-opacity:1;stroke:#106e7d;stroke-width:0.132292;stroke-miterlimit:4;stroke-dasharray:none;stroke-opacity:1" />
    </g>
    <g
       id="g9973"
       transform="matrix(2.9909929,0,0,2.9981898,1.0649433,-134.88815)">
      <path
         inkscape:connector-curvature="0"
         sodipodi:nodetypes="sccscs"
         d="m 8.1822703,17.775561 c -3.595016,0 -3.46655,2.451623 -3.55171,5.291666 h 7.1437507 c -0.08593,-2.841936 0.368222,-5.291666 -3.5887707,-5.291666 h -0.0033 z"
         style="fill:#3485fd;stroke:#0d6efd;stroke-width:0.12596101;stroke-miterlimit:4;stroke-dasharray:none"
         id="path884-0" />
      <ellipse
         ry="1.0276377"
         rx="0.96139628"
         cy="20.8557"
         cx="6.8037171"
         id="path891-8"
         style="fill:#67dab8;stroke:#11694f;stroke-width:0.132292;stroke-miterlimit:4;stroke-dasharray:none" />
      <ellipse
         ry="1.0276377"
         rx="0.96139628"
         cy="20.858091"
         cx="9.7671337"
         id="path891-6-9"
         style="fill:#67dab8;stroke:#11694f;stroke-width:0.132292;stroke-miterlimit:4;stroke-dasharray:none" />
      <path
         inkscape:connector-curvature="0"
         sodipodi:nodetypes="ccccc"
         d="m 4.6305603,23.596394 h 7.1437507 v 6.35 H 4.6305603 Z"
         style="fill:#3485fd;stroke:#0d6efd;stroke-width:0.132292;stroke-miterlimit:4;stroke-dasharray:none"
         id="rect917-3" />
      <rect
         ry="0"
         y="23.067226"
         x="4.6305604"
         height="0.52916658"
         width="7.1437502"
         id="rect915-1"
         style="fill:#abdee5;stroke:#106e7d;stroke-width:0.132292;stroke-miterlimit:4;stroke-dasharray:none" />
      <path
         inkscape:connector-curvature="0"
         sodipodi:nodetypes="cacc"
         d="m 4.4955986,30.160354 c 0.1471024,1.767852 1.9363384,3.056906 3.547908,3.062412 1.6244721,0.0055 3.4533774,-1.294562 3.6004804,-3.062412 z"
         style="fill:#67dab8;stroke:#11694f;stroke-width:0.127827;stroke-miterlimit:4;stroke-dasharray:none"
         id="path919-4" />
      <rect
         transform="rotate(-9.2201811)"
         y="29.752369"
         x="8.5751181"
         height="2.8651912"
         width="0.62746155"
         id="rect1009-6-8"
         style="fill:#3485fd;fill-opacity:1;stroke:#0d6efd;stroke-width:0.132292;stroke-miterlimit:4;stroke-dasharray:none;stroke-opacity:1" />
      <rect
         transform="rotate(-21.078625)"
         y="27.581678"
         x="2.2711451"
         height="2.8651912"
         width="0.62746149"
         id="rect1009-9"
         style="fill:#3485fd;fill-opacity:1;stroke:#0d6efd;stroke-width:0.132292;stroke-miterlimit:4;stroke-dasharray:none;stroke-opacity:1" />
      <circle
         r="0.66711146"
         cy="24.466259"
         cx="12.165693"
         id="path946-6"
         style="fill:#abdee5;fill-opacity:1;stroke:#106e7d;stroke-width:0.132292;stroke-miterlimit:4;stroke-dasharray:none;stroke-opacity:1" />
      <path
         inkscape:connector-curvature="0"
         sodipodi:nodetypes="ccsccsssc"
         d="m 14.087997,30.6112 c -0.368457,-4e-5 -0.667175,0.298637 -0.667184,0.667093 1.6e-5,0.164125 0.0032,0.344948 0.03592,0.407174 0.01395,0.02654 0.133434,0.01647 0.133427,0.0059 -2e-6,-0.369692 0.24292,-0.66938 0.542566,-0.669353 0.403292,-0.0309 0.46677,0.493634 0.455717,0.570525 -0.0088,0.06158 0.136314,-0.03142 0.145047,-0.08913 0.0087,-0.0577 0.0216,-0.168189 0.0216,-0.225116 -2.3e-5,-0.368421 -0.298673,-0.667082 -0.667091,-0.667093 z"
         style="fill:#abdee5;fill-opacity:1;stroke:#106e7d;stroke-width:0.132292;stroke-miterlimit:4;stroke-dasharray:none;stroke-opacity:1"
         id="path946-5-77" />
      <circle
         r="0.66711146"
         cy="27.772991"
         cx="13.479706"
         id="path946-3-3"
         style="fill:#abdee5;fill-opacity:1;stroke:#106e7d;stroke-width:0.132292;stroke-miterlimit:4;stroke-dasharray:none;stroke-opacity:1" />
      <rect
         transform="matrix(-0.98707989,-0.16022887,-0.16022887,0.98707989,0,0)"
         y="27.097235"
         x="-7.4791002"
         height="2.8651912"
         width="0.62746155"
         id="rect1009-6-9-7"
         style="fill:#3485fd;fill-opacity:1;stroke:#0d6efd;stroke-width:0.132292;stroke-miterlimit:4;stroke-dasharray:none;stroke-opacity:1" />
      <rect
         transform="matrix(-0.93308777,-0.35964873,-0.35964873,0.93308777,0,0)"
         y="21.684158"
         x="-12.894835"
         height="2.8651912"
         width="0.62746149"
         id="rect1009-1-1"
         style="fill:#3485fd;fill-opacity:1;stroke:#0d6efd;stroke-width:0.132292;stroke-miterlimit:4;stroke-dasharray:none;stroke-opacity:1" />
      <circle
         transform="scale(-1,1)"
         r="0.66711146"
         cy="24.41778"
         cx="-4.1065331"
         id="path946-2-2"
         style="fill:#abdee5;fill-opacity:1;stroke:#106e7d;stroke-width:0.132292;stroke-miterlimit:4;stroke-dasharray:none;stroke-opacity:1" />
      <path
         inkscape:connector-curvature="0"
         sodipodi:nodetypes="ccsccsssc"
         d="m 2.1842303,30.562722 c 0.368457,-4e-5 0.667175,0.298637 0.667183,0.667093 -1.5e-5,0.164125 -0.0032,0.344948 -0.03592,0.407174 -0.01395,0.02654 -0.133434,0.01647 -0.133427,0.0059 2e-6,-0.369691 -0.24292,-0.669379 -0.542566,-0.669352 -0.403292,-0.0309 -0.46677,0.493634 -0.455717,0.570524 0.0089,0.06158 -0.136314,-0.03142 -0.145047,-0.08913 -0.0087,-0.0577 -0.0216,-0.168189 -0.0216,-0.225116 2.2e-5,-0.368421 0.298672,-0.667083 0.667091,-0.667093 z"
         style="fill:#abdee5;fill-opacity:1;stroke:#106e7d;stroke-width:0.132292;stroke-miterlimit:4;stroke-dasharray:none;stroke-opacity:1"
         id="path946-5-7-2" />
      <circle
         transform="scale(-1,1)"
         r="0.66711146"
         cy="27.724512"
         cx="-2.7925205"
         id="path946-3-0-1"
         style="fill:#abdee5;fill-opacity:1;stroke:#106e7d;stroke-width:0.132292;stroke-miterlimit:4;stroke-dasharray:none;stroke-opacity:1" />
    </g>
    <g
       id="g9991"
       transform="matrix(2.9909929,0,0,2.9981898,1.4616793,-134.88815)">
      <path
         inkscape:connector-curvature="0"
         sodipodi:nodetypes="sccscs"
         d="m 8.0496272,34.379691 c -3.595016,0 -3.46655,2.704264 -3.55171,5.836975 h 7.1437498 c -0.08593,-3.134799 0.368222,-5.836975 -3.5887698,-5.836975 h -0.0032 z"
         style="fill:#3485fd;stroke:#0d6efd;stroke-width:0.132292;stroke-miterlimit:4;stroke-dasharray:none"
         id="path884-5" />
      <ellipse
         ry="1.0276377"
         rx="0.96139628"
         cy="38.005138"
         cx="6.671072"
         id="path891-0"
         style="fill:#67dab8;stroke:#11694f;stroke-width:0.132292;stroke-miterlimit:4;stroke-dasharray:none" />
      <ellipse
         ry="1.0276377"
         rx="0.96139628"
         cy="38.00753"
         cx="9.634491"
         id="path891-6-90"
         style="fill:#67dab8;stroke:#11694f;stroke-width:0.132292;stroke-miterlimit:4;stroke-dasharray:none" />
      <path
         inkscape:connector-curvature="0"
         sodipodi:nodetypes="ccccc"
         d="m 4.4979172,40.745833 h 7.1437498 v 6.35 H 4.4979172 Z"
         style="fill:#3485fd;stroke:#0d6efd;stroke-width:0.132292;stroke-miterlimit:4;stroke-dasharray:none"
         id="rect917-4" />
      <rect
         ry="0"
         y="40.216663"
         x="4.4979172"
         height="0.52916658"
         width="7.1437502"
         id="rect915-0"
         style="fill:#abdee5;stroke:#106e7d;stroke-width:0.132292;stroke-miterlimit:4;stroke-dasharray:none" />
      <path
         inkscape:connector-curvature="0"
         sodipodi:nodetypes="cacc"
         d="m 4.4979172,47.095833 c 0.147007,1.894749 1.935082,3.276333 3.545606,3.282234 1.623418,0.0059 3.4511358,-1.387487 3.5981438,-3.282234 z"
         style="fill:#67dab8;stroke:#11694f;stroke-width:0.132292;stroke-miterlimit:4;stroke-dasharray:none"
         id="path919-1" />
      <rect
         transform="rotate(-9.2201811)"
         y="46.658978"
         x="5.6963539"
         height="2.8651912"
         width="0.62746155"
         id="rect1009-6-3"
         style="fill:#3485fd;fill-opacity:1;stroke:#0d6efd;stroke-width:0.132292;stroke-miterlimit:4;stroke-dasharray:none;stroke-opacity:1" />
      <rect
         transform="rotate(-21.078625)"
         y="43.535904"
         x="-4.0203967"
         height="2.8651912"
         width="0.62746149"
         id="rect1009-7"
         style="fill:#3485fd;fill-opacity:1;stroke:#0d6efd;stroke-width:0.132292;stroke-miterlimit:4;stroke-dasharray:none;stroke-opacity:1" />
      <circle
         r="0.66711146"
         cy="41.615696"
         cx="12.033051"
         id="path946-4"
         style="fill:#abdee5;fill-opacity:1;stroke:#106e7d;stroke-width:0.132292;stroke-miterlimit:4;stroke-dasharray:none;stroke-opacity:1" />
      <path
         inkscape:connector-curvature="0"
         sodipodi:nodetypes="ccsccsssc"
         d="m 13.955353,47.760639 c -0.368457,-4e-5 -0.667175,0.298637 -0.667184,0.667093 1.6e-5,0.164125 0.0032,0.344948 0.03592,0.407174 0.01395,0.02654 0.133434,0.01647 0.133427,0.0059 -2e-6,-0.369692 0.24292,-0.66938 0.542566,-0.669353 0.403292,-0.0309 0.46677,0.493634 0.455717,0.570525 -0.0088,0.06158 0.136314,-0.03142 0.145047,-0.08913 0.0087,-0.0577 0.0216,-0.168189 0.0216,-0.225116 -2.3e-5,-0.368421 -0.298673,-0.667082 -0.667091,-0.667093 z"
         style="fill:#abdee5;fill-opacity:1;stroke:#106e7d;stroke-width:0.132292;stroke-miterlimit:4;stroke-dasharray:none;stroke-opacity:1"
         id="path946-5-1" />
      <circle
         r="0.66711146"
         cy="44.922432"
         cx="13.347061"
         id="path946-3-1"
         style="fill:#abdee5;fill-opacity:1;stroke:#106e7d;stroke-width:0.132292;stroke-miterlimit:4;stroke-dasharray:none;stroke-opacity:1" />
      <rect
         transform="matrix(-0.98707989,-0.16022887,-0.16022887,0.98707989,0,0)"
         y="44.046352"
         x="-10.096005"
         height="2.8651912"
         width="0.62746155"
         id="rect1009-6-9-3"
         style="fill:#3485fd;fill-opacity:1;stroke:#0d6efd;stroke-width:0.132292;stroke-miterlimit:4;stroke-dasharray:none;stroke-opacity:1" />
      <rect
         transform="matrix(-0.93308777,-0.35964873,-0.35964873,0.93308777,0,0)"
         y="37.733795"
         x="-18.938839"
         height="2.8651912"
         width="0.62746149"
         id="rect1009-1-0"
         style="fill:#3485fd;fill-opacity:1;stroke:#0d6efd;stroke-width:0.132292;stroke-miterlimit:4;stroke-dasharray:none;stroke-opacity:1" />
      <circle
         transform="scale(-1,1)"
         r="0.66711146"
         cy="41.567219"
         cx="-3.9738903"
         id="path946-2-3"
         style="fill:#abdee5;fill-opacity:1;stroke:#106e7d;stroke-width:0.132292;stroke-miterlimit:4;stroke-dasharray:none;stroke-opacity:1" />
      <path
         inkscape:connector-curvature="0"
         sodipodi:nodetypes="ccsccsssc"
         d="m 2.0515872,47.712161 c 0.368457,-4e-5 0.667175,0.298637 0.667183,0.667093 -1.5e-5,0.164125 -0.0032,0.344948 -0.03592,0.407174 -0.01395,0.02654 -0.133434,0.01647 -0.133427,0.0059 2e-6,-0.369691 -0.24292,-0.669379 -0.542566,-0.669352 -0.403292,-0.0309 -0.46677,0.493634 -0.455717,0.570524 0.0088,0.06158 -0.136314,-0.03142 -0.145047,-0.08913 -0.0087,-0.0577 -0.0216,-0.168189 -0.0216,-0.225116 2.2e-5,-0.368421 0.298672,-0.667083 0.667091,-0.667093 z"
         style="fill:#abdee5;fill-opacity:1;stroke:#106e7d;stroke-width:0.132292;stroke-miterlimit:4;stroke-dasharray:none;stroke-opacity:1"
         id="path946-5-7-21" />
      <circle
         transform="scale(-1,1)"
         r="0.66711146"
         cy="44.873951"
         cx="-2.6598778"
         id="path946-3-0-7"
         style="fill:#abdee5;fill-opacity:1;stroke:#106e7d;stroke-width:0.132292;stroke-miterlimit:4;stroke-dasharray:none;stroke-opacity:1" />
    </g>
    <g
       id="g10009"
       transform="matrix(2.9909929,0,0,2.9981898,1.46168,-134.88815)">
      <path
         inkscape:connector-curvature="0"
         sodipodi:nodetypes="sccscs"
         d="m 8.0496267,51.858334 c -3.595016,0 -3.46655,2.451623 -3.55171,5.291666 h 7.1437503 c -0.08593,-2.841936 0.368222,-5.291666 -3.5887703,-5.291666 h -0.0033 z"
         style="fill:#3485fd;stroke:#0d6efd;stroke-width:0.12596101;stroke-miterlimit:4;stroke-dasharray:none"
         id="path884-0-5" />
      <ellipse
         ry="1.0276377"
         rx="0.96139628"
         cy="54.938473"
         cx="6.6710734"
         id="path891-8-6"
         style="fill:#67dab8;stroke:#11694f;stroke-width:0.132292;stroke-miterlimit:4;stroke-dasharray:none" />
      <ellipse
         ry="1.0276377"
         rx="0.96139628"
         cy="54.940861"
         cx="9.63449"
         id="path891-6-9-5"
         style="fill:#67dab8;stroke:#11694f;stroke-width:0.132292;stroke-miterlimit:4;stroke-dasharray:none" />
      <path
         inkscape:connector-curvature="0"
         sodipodi:nodetypes="ccccc"
         d="m 4.4979167,57.679167 h 7.1437503 v 6.35 H 4.4979167 Z"
         style="fill:#3485fd;stroke:#0d6efd;stroke-width:0.132292;stroke-miterlimit:4;stroke-dasharray:none"
         id="rect917-3-4" />
      <rect
         ry="0"
         y="57.149998"
         x="4.4979172"
         height="0.52916658"
         width="7.1437502"
         id="rect915-1-2"
         style="fill:#abdee5;stroke:#106e7d;stroke-width:0.132292;stroke-miterlimit:4;stroke-dasharray:none" />
      <path
         inkscape:connector-curvature="0"
         sodipodi:nodetypes="cacc"
         d="m 4.4955976,64.027021 c 0.1471024,1.767852 1.9363384,3.056906 3.547908,3.062412 1.6244721,0.0055 3.4533774,-1.294562 3.6004804,-3.062412 z"
         style="fill:#67dab8;stroke:#11694f;stroke-width:0.127827;stroke-miterlimit:4;stroke-dasharray:none"
         id="path919-4-2" />
      <rect
         transform="rotate(-9.2201811)"
         y="63.373531"
         x="2.983144"
         height="2.8651912"
         width="0.62746155"
         id="rect1009-6-8-1"
         style="fill:#3485fd;fill-opacity:1;stroke:#0d6efd;stroke-width:0.132292;stroke-miterlimit:4;stroke-dasharray:none;stroke-opacity:1" />
      <rect
         transform="rotate(-21.078625)"
         y="59.336189"
         x="-10.110449"
         height="2.8651912"
         width="0.62746149"
         id="rect1009-9-7"
         style="fill:#3485fd;fill-opacity:1;stroke:#0d6efd;stroke-width:0.132292;stroke-miterlimit:4;stroke-dasharray:none;stroke-opacity:1" />
      <circle
         r="0.66711146"
         cy="58.54903"
         cx="12.03305"
         id="path946-6-2"
         style="fill:#abdee5;fill-opacity:1;stroke:#106e7d;stroke-width:0.132292;stroke-miterlimit:4;stroke-dasharray:none;stroke-opacity:1" />
      <path
         inkscape:connector-curvature="0"
         sodipodi:nodetypes="ccsccsssc"
         d="m 13.955353,64.693973 c -0.368457,-4e-5 -0.667175,0.298637 -0.667184,0.667093 1.6e-5,0.164125 0.0032,0.344948 0.03592,0.407174 0.01395,0.02654 0.133434,0.01647 0.133427,0.0059 -2e-6,-0.369692 0.24292,-0.66938 0.542566,-0.669353 0.403292,-0.0309 0.46677,0.493634 0.455717,0.570525 -0.0088,0.06158 0.136314,-0.03142 0.145047,-0.08913 0.0087,-0.0577 0.0216,-0.168189 0.0216,-0.225116 -2.3e-5,-0.368421 -0.298673,-0.667082 -0.667091,-0.667093 z"
         style="fill:#abdee5;fill-opacity:1;stroke:#106e7d;stroke-width:0.132292;stroke-miterlimit:4;stroke-dasharray:none;stroke-opacity:1"
         id="path946-5-77-4" />
      <circle
         r="0.66711146"
         cy="61.855762"
         cx="13.347062"
         id="path946-3-3-1"
         style="fill:#abdee5;fill-opacity:1;stroke:#106e7d;stroke-width:0.132292;stroke-miterlimit:4;stroke-dasharray:none;stroke-opacity:1" />
      <rect
         transform="matrix(-0.98707989,-0.16022887,-0.16022887,0.98707989,0,0)"
         y="60.760906"
         x="-12.809214"
         height="2.8651912"
         width="0.62746155"
         id="rect1009-6-9-7-6"
         style="fill:#3485fd;fill-opacity:1;stroke:#0d6efd;stroke-width:0.132292;stroke-miterlimit:4;stroke-dasharray:none;stroke-opacity:1" />
      <rect
         transform="matrix(-0.93308777,-0.35964873,-0.35964873,0.93308777,0,0)"
         y="53.534081"
         x="-25.028893"
         height="2.8651912"
         width="0.62746149"
         id="rect1009-1-1-5"
         style="fill:#3485fd;fill-opacity:1;stroke:#0d6efd;stroke-width:0.132292;stroke-miterlimit:4;stroke-dasharray:none;stroke-opacity:1" />
      <circle
         transform="scale(-1,1)"
         r="0.66711146"
         cy="58.500553"
         cx="-3.9738896"
         id="path946-2-2-7"
         style="fill:#abdee5;fill-opacity:1;stroke:#106e7d;stroke-width:0.132292;stroke-miterlimit:4;stroke-dasharray:none;stroke-opacity:1" />
      <path
         inkscape:connector-curvature="0"
         sodipodi:nodetypes="ccsccsssc"
         d="m 2.0515867,64.645495 c 0.368457,-4e-5 0.667175,0.298637 0.667183,0.667093 -1.5e-5,0.164125 -0.0032,0.344948 -0.03592,0.407174 -0.01395,0.02654 -0.133434,0.01647 -0.133427,0.0059 2e-6,-0.369691 -0.24292,-0.669379 -0.542566,-0.669352 -0.403292,-0.0309 -0.46677,0.493634 -0.455717,0.570524 0.0089,0.06158 -0.136314,-0.03142 -0.145047,-0.08913 -0.0087,-0.0577 -0.0216,-0.168189 -0.0216,-0.225116 2.2e-5,-0.368421 0.298672,-0.667083 0.667091,-0.667093 z"
         style="fill:#abdee5;fill-opacity:1;stroke:#106e7d;stroke-width:0.132292;stroke-miterlimit:4;stroke-dasharray:none;stroke-opacity:1"
         id="path946-5-7-2-8" />
      <circle
         transform="scale(-1,1)"
         r="0.66711146"
         cy="61.807285"
         cx="-2.6598768"
         id="path946-3-0-1-5"
         style="fill:#abdee5;fill-opacity:1;stroke:#106e7d;stroke-width:0.132292;stroke-miterlimit:4;stroke-dasharray:none;stroke-opacity:1" />
    </g>
  </g>
</svg>
